<svg version="1.1" id="Layer_1" xmlns="http://www.w3.org/2000/svg" xmlns:xlink="http://www.w3.org/1999/xlink" x="0px" y="0px"
	 width="100%" viewBox="0 0 500 500" enable-background="new 0 0 500 500" xml:space="preserve">
<path fill="#000000" opacity="1.000000" stroke="none" 
	d="
M223.000000,501.000000 
	C148.666687,501.000000 74.833366,501.000000 1.000040,501.000000 
	C1.000026,334.333405 1.000026,167.666779 1.000013,1.000129 
	C167.666565,1.000086 334.333130,1.000086 500.999756,1.000043 
	C500.999847,167.666534 500.999847,334.333069 500.999939,500.999817 
	C408.500000,501.000000 316.000000,501.000000 223.000000,501.000000 
M283.933167,234.445847 
	C283.648376,234.273193 283.363556,234.100540 282.833191,233.346893 
	C282.169525,232.551117 281.505890,231.755341 280.918243,230.446030 
	C280.632141,230.276093 280.346039,230.106171 280.026978,229.922455 
	C280.026978,229.922455 280.060730,229.906509 280.023468,229.048157 
	C280.368530,226.515549 279.874908,223.363754 281.206818,221.559708 
	C286.402313,214.522476 296.572235,213.404434 302.999725,221.377213 
	C305.359406,224.304184 307.143555,227.695129 309.190247,230.874420 
	C309.774536,230.769989 310.358826,230.665543 310.943115,230.561111 
	C310.943115,226.392746 311.106720,222.213348 310.826477,218.063919 
	C310.757599,217.044800 309.418365,215.811417 308.360199,215.206451 
	C299.662598,210.233994 290.420319,211.274170 281.177032,213.084045 
	C280.018463,213.310898 279.012695,214.318176 277.467834,215.036789 
	C277.467834,215.036789 277.008240,215.152405 276.305145,214.998581 
	C274.519226,217.290726 272.733337,219.582870 270.881561,221.893463 
	C270.881561,221.893463 270.889313,221.961411 270.180481,222.244080 
	C268.126770,226.348175 266.805908,230.510193 269.040100,235.695557 
	C271.059662,238.997589 272.344055,243.331055 275.243958,245.397980 
	C282.415833,250.509796 290.327423,254.583801 297.978058,259.792175 
	C299.636597,262.554932 301.295135,265.317688 302.992584,268.709808 
	C302.977661,269.129639 302.962738,269.549469 302.381744,270.209656 
	C302.322235,270.797485 302.262726,271.385315 302.029419,272.682861 
	C302.003021,273.412964 301.976624,274.143036 301.295135,275.190460 
	C298.724030,276.459686 296.255890,278.502869 293.563538,278.861176 
	C283.131531,280.249329 276.468811,276.471680 272.016144,266.086639 
	C271.333862,264.495300 270.189697,263.101990 269.011505,261.221954 
	C264.853180,268.219330 266.952820,277.631744 272.565674,280.142334 
	C279.820221,283.387207 287.578644,283.768616 295.211975,282.691620 
	C299.289459,282.116333 303.105438,279.687714 307.085358,278.093597 
	C307.085358,278.093597 307.102386,278.050934 307.795807,278.017609 
	C309.217072,276.397339 310.638336,274.777039 312.145447,273.127502 
	C312.145447,273.127502 312.128937,273.038330 312.823059,272.714417 
	C315.147797,267.020355 314.646576,261.449982 312.084808,255.928284 
	C312.084808,255.928284 312.046417,255.912170 312.026550,255.255692 
	C311.372528,254.487274 310.718475,253.718857 310.005188,252.991943 
	C310.005188,252.991943 310.054474,252.938461 309.996216,252.252319 
	C309.360809,251.816620 308.725403,251.380920 308.076172,250.968674 
	C308.076172,250.968674 308.060974,250.949234 307.929169,250.443741 
	C307.637299,250.277908 307.345398,250.112076 307.022522,249.938293 
	C307.022522,249.938293 307.036957,249.909683 306.790222,249.273438 
	C304.545746,247.828751 302.301300,246.384064 300.000000,244.998779 
	C300.000000,244.998779 300.056519,244.941315 299.823395,244.365936 
	C299.229706,244.221924 298.636047,244.077927 298.012421,243.957840 
	C298.012421,243.957840 298.044922,243.920120 297.790497,243.270096 
	C295.552368,242.161987 293.314240,241.053894 291.030670,240.000137 
	C291.030670,240.000137 291.059204,239.937912 290.930664,239.436249 
	C290.633240,239.348129 290.335785,239.260025 289.560272,239.036758 
	C289.560272,239.036758 289.071320,238.948624 288.836517,238.337982 
	C287.912781,237.879471 286.989014,237.420975 286.028870,236.989075 
	C286.028870,236.989075 286.041687,236.946243 285.906464,236.454620 
	C285.622742,236.287125 285.338989,236.119614 285.000610,235.990616 
	C285.000610,235.990616 285.048187,235.941498 284.925629,235.435974 
	C284.634277,235.271133 284.342957,235.106277 284.000000,234.998352 
	C284.000000,234.998352 284.058502,234.949127 283.933167,234.445847 
M171.017868,227.052399 
	C171.017868,227.052399 171.056595,226.940903 170.648972,227.032791 
	C170.340744,227.138412 170.201157,227.353302 169.985352,228.398285 
	C164.944687,234.914642 164.438019,239.233749 168.207077,245.689148 
	C169.433655,246.794647 170.660248,247.900146 172.214310,249.705688 
	C172.452179,251.382202 172.690048,253.058701 172.129929,254.895554 
	C169.709946,255.284698 167.289948,255.673828 164.226578,255.766739 
	C156.468430,245.686554 148.775650,235.555222 140.936554,225.538391 
	C129.697464,211.176987 118.450073,196.819397 106.973579,182.648590 
	C104.484436,179.575089 101.990257,175.913086 97.086060,176.001450 
	C91.256088,176.106491 85.421951,175.969421 79.591194,176.050735 
	C78.470757,176.066360 77.357628,176.606705 76.241127,176.904984 
	C76.135300,177.308746 76.029472,177.712524 75.923637,178.116287 
	C83.100975,179.786087 89.870758,181.976471 92.086891,190.821854 
	C92.119156,204.564941 92.151421,218.308014 92.029488,232.970627 
	C92.019775,242.613144 92.045166,252.255875 91.991699,261.898132 
	C91.920822,274.681122 91.893684,274.678894 80.056480,278.501709 
	C79.438148,278.701355 78.846977,278.985107 77.376663,279.270721 
	C76.443863,281.560486 77.411835,282.025543 79.612228,282.008270 
	C90.988075,281.918976 102.364990,281.966797 114.639015,281.966797 
	C113.787407,280.742767 113.263054,279.989105 111.945381,279.055481 
	C106.645500,279.477570 101.145287,277.217346 99.739861,273.080383 
	C97.707840,267.098999 98.192490,260.179688 98.085251,253.652603 
	C97.993523,248.069427 98.579742,242.475098 98.994179,235.974380 
	C98.933266,226.331573 98.872360,216.688766 98.760117,206.300232 
	C98.760117,203.704239 98.760117,201.108231 98.760117,197.302200 
	C103.701744,203.045944 107.932510,207.651337 111.812576,212.535324 
	C121.235146,224.395752 130.457993,236.414597 139.837311,248.309723 
	C143.784454,253.315643 148.442215,257.838440 151.853897,263.171356 
	C157.024963,271.254425 163.183762,278.213837 172.060486,281.825104 
	C180.373169,285.206909 180.660172,281.955566 180.815567,276.008362 
	C181.981064,276.003418 183.147156,275.972107 184.311981,275.997894 
	C190.863342,276.142822 196.999557,275.738098 203.069351,280.533417 
	C207.773788,284.250061 214.882919,285.059052 221.047623,286.689941 
	C222.484940,287.070160 224.427032,285.542267 226.775955,285.141052 
	C231.010544,286.356689 235.199356,287.034485 239.753159,283.761505 
	C250.104233,280.633362 256.831329,273.398193 261.396851,264.042877 
	C266.304596,253.986298 266.086334,243.213333 262.707825,233.043152 
	C259.793213,224.269470 253.954224,216.971619 244.695175,212.304428 
	C239.333694,210.946213 233.972229,209.587982 227.633987,208.025574 
	C222.565063,208.025574 217.496140,208.025574 212.427216,208.025574 
	C214.274933,205.836914 216.721024,204.756897 219.085526,203.520767 
	C221.090820,202.472366 223.001801,201.243576 225.654770,199.863419 
	C228.566208,197.597290 231.430222,195.302170 231.710327,190.679245 
	C231.542358,188.305847 231.374374,185.932434 231.189011,183.313385 
	C226.443329,182.786987 221.755417,181.440094 218.004929,186.472702 
	C218.004929,186.472702 217.933334,186.963943 217.993851,186.998230 
	C217.993851,186.998230 217.954147,186.941132 217.302765,187.200775 
	C216.215546,189.413498 215.128311,191.626221 213.378281,194.080612 
	C212.971115,194.956406 212.085907,195.922348 212.231430,196.693909 
	C213.554611,203.709549 207.672272,206.140701 204.016541,210.006119 
	C204.016541,210.006119 204.052429,210.039200 204.084824,209.324219 
	C204.494492,208.235596 204.904160,207.146973 205.849747,205.560684 
	C206.175812,204.485474 206.948700,203.315353 206.744278,202.352814 
	C206.128906,199.455429 205.508011,196.424011 204.070175,193.914108 
	C203.603409,193.099335 200.143219,193.010681 198.862839,193.840561 
	C195.357361,196.112671 193.038239,199.416168 193.228806,204.382233 
	C193.823532,207.542480 194.418274,210.702713 194.498947,214.087479 
	C194.292923,214.391037 194.086914,214.694595 193.273666,214.998657 
	C192.830826,215.318542 192.387985,215.638428 191.368256,216.178497 
	C190.562927,217.098389 189.757584,218.018280 188.221252,218.995926 
	C185.549667,220.746201 185.421036,226.950165 179.975067,222.852051 
	C179.920563,213.247330 179.866043,203.642593 179.958588,193.177444 
	C180.147217,182.894394 180.159653,182.934998 190.033203,179.910019 
	C191.399612,179.491379 192.571915,178.439133 193.834076,177.680222 
	C193.721848,177.220291 193.609619,176.760361 193.497391,176.300430 
	C182.041397,176.300430 170.585403,176.300430 159.129425,176.300430 
	C159.044113,176.893478 158.958817,177.486526 158.873505,178.079575 
	C160.778381,178.722168 162.666031,179.422684 164.591904,179.994583 
	C168.006653,181.008621 171.486816,181.825867 171.972000,186.319946 
	C172.250504,188.899536 172.783340,191.451675 173.084106,194.949982 
	C173.061783,203.584152 173.097672,212.219177 172.967728,220.851730 
	C172.941925,222.565994 172.280472,224.270706 171.995621,225.991821 
	C171.995621,225.991821 172.006973,225.908264 171.460815,226.066116 
	C171.275604,226.383163 171.090393,226.700211 171.017868,227.052399 
M342.380493,218.137131 
	C341.772339,218.820694 341.164215,219.504257 340.253937,220.278336 
	C340.253937,220.278336 340.178558,220.584595 339.776733,220.827744 
	C339.325134,221.262100 338.873535,221.696457 337.488617,221.909698 
	C337.328857,220.284927 337.034515,218.660507 337.030365,217.035339 
	C336.994415,202.925308 337.048553,188.814880 336.950043,174.705429 
	C336.940613,173.353821 338.358276,170.556488 333.998627,171.026001 
	C332.641815,171.664520 331.285004,172.303024 329.988037,172.980713 
	C329.988037,172.980713 329.972839,172.910812 329.137207,172.992386 
	C323.347443,174.255707 317.557648,175.519028 311.767883,176.782333 
	C311.821350,177.513763 311.874817,178.245193 311.928284,178.976608 
	C314.619965,179.593140 317.311676,180.209656 320.608612,181.145752 
	C321.130554,182.322739 321.652496,183.499710 322.014893,185.665634 
	C321.993927,215.439301 321.972931,245.212967 321.267792,275.301727 
	C320.105652,276.191101 319.033936,277.254547 317.755005,277.919159 
	C316.562653,278.538788 315.149933,278.734314 313.180634,279.552521 
	C313.932037,280.358551 314.673187,281.855072 315.436401,281.866364 
	C325.859924,282.021149 336.286530,281.970612 347.332642,281.970612 
	C346.736603,280.593842 346.321289,279.634644 345.542816,278.085236 
	C342.000610,279.921600 339.403900,277.923126 336.949707,275.012146 
	C336.919647,260.681824 336.889618,246.351501 336.988831,231.319336 
	C337.672089,229.907486 338.355316,228.495651 339.636505,226.837097 
	C340.790924,225.577347 341.945312,224.317581 343.578156,222.986923 
	C343.578156,222.986923 344.044922,222.860291 344.552979,222.943192 
	C344.730743,222.666550 344.908478,222.389908 345.783539,221.740067 
	C347.449066,221.194107 349.083038,220.507080 350.785461,220.125839 
	C359.646332,218.141510 367.616882,223.983383 367.978271,233.759109 
	C367.969849,245.803528 367.921906,257.848236 368.004211,269.892029 
	C368.014221,271.355408 368.725647,272.813965 369.016357,275.030457 
	C369.248993,280.216431 372.959991,282.419800 377.165253,282.801697 
	C382.491241,283.285309 388.286560,284.050110 393.845001,278.601715 
	C388.635468,278.718964 384.008392,279.740540 382.957672,273.163879 
	C382.961639,260.056976 383.002655,246.949860 382.923645,233.843475 
	C382.913574,232.172272 382.277191,230.504852 381.986084,228.061768 
	C381.859283,227.096786 381.894684,226.075333 381.581360,225.175278 
	C376.814026,211.480347 358.476807,207.755341 346.284271,216.012482 
	C345.178772,216.645111 344.073273,217.277740 342.920166,217.917542 
	C342.920166,217.917542 342.912109,217.965042 342.380493,218.137131 
M379.442535,181.028717 
	C375.899628,185.386459 376.078552,190.389664 378.147949,194.978928 
	C380.651154,200.530106 385.889130,201.491287 391.535126,201.084671 
	C396.845367,200.702225 401.501648,196.950958 402.637390,191.599365 
	C403.498596,187.541428 401.903564,181.699066 396.939362,179.012177 
	C391.123810,175.864456 385.720520,176.221786 379.442535,181.028717 
M374.799561,185.213760 
	C373.712585,182.937271 373.038269,179.088593 371.462341,178.674942 
	C366.454590,177.360550 361.110840,177.326324 356.448944,176.853348 
	C356.271942,185.444855 359.720673,193.083557 355.115662,200.749191 
	C358.082153,200.749191 360.813721,200.749191 363.426361,200.749191 
	C362.871063,197.925903 362.361603,195.335785 361.781097,192.384384 
	C367.418091,191.877380 372.788940,192.158234 374.799561,185.213760 
M416.683563,196.730545 
	C412.405914,199.792847 409.211029,197.252716 406.130280,194.124329 
	C403.896881,198.490433 405.185822,200.617950 409.366516,200.973236 
	C411.670532,201.169037 414.269928,201.541702 416.266449,200.708755 
	C418.400696,199.818344 421.070984,197.845032 421.503326,195.899200 
	C421.948547,193.895309 420.488312,190.888977 418.925476,189.175049 
	C417.240540,187.327271 414.332001,186.655258 412.233795,185.097778 
	C411.255676,184.371719 410.929962,182.766754 410.308502,181.560181 
	C411.596985,181.019089 413.085052,179.784073 414.131348,180.085007 
	C416.150879,180.665924 417.920990,182.113968 420.807922,183.791290 
	C420.483795,181.616547 420.419220,178.823547 420.005005,178.770676 
	C416.031860,178.263641 411.218048,176.743301 408.155670,178.365295 
	C402.663300,181.274338 403.897278,186.470718 409.702942,189.881546 
	C412.475128,191.510208 417.325562,191.011307 416.683563,196.730545 
z"/>
<path fill="#E7BA20" opacity="1.000000" stroke="none" 
	d="
M179.951874,276.163147 
	C180.660172,281.955566 180.373169,285.206909 172.060486,281.825104 
	C163.183762,278.213837 157.024963,271.254425 151.853897,263.171356 
	C148.442215,257.838440 143.784454,253.315643 139.837311,248.309723 
	C130.457993,236.414597 121.235146,224.395752 111.812576,212.535324 
	C107.932510,207.651337 103.701744,203.045944 98.760117,197.302200 
	C98.760117,201.108231 98.760117,203.704239 98.565269,207.017151 
	C98.535652,217.451279 98.700874,227.168503 98.866104,236.885712 
	C98.579742,242.475098 97.993523,248.069427 98.085251,253.652603 
	C98.192490,260.179688 97.707840,267.098999 99.739861,273.080383 
	C101.145287,277.217346 106.645500,279.477570 112.287674,279.522125 
	C112.095772,280.315491 111.563934,280.922882 111.027046,280.927338 
	C100.922203,281.011902 90.816368,281.067749 80.712189,280.973877 
	C79.883850,280.966217 79.065926,279.837524 78.243164,279.229706 
	C78.846977,278.985107 79.438148,278.701355 80.056480,278.501709 
	C91.893684,274.678894 91.920822,274.681122 91.991699,261.898132 
	C92.045166,252.255875 92.019775,242.613144 92.385223,232.189270 
	C92.883278,221.652679 93.136925,211.897171 93.114990,202.142288 
	C93.105774,198.046402 92.513405,193.951828 92.186142,189.856659 
	C89.870758,181.976471 83.100975,179.786087 75.923637,178.116287 
	C76.029472,177.712524 76.135300,177.308746 76.241127,176.904984 
	C77.357628,176.606705 78.470757,176.066360 79.591194,176.050735 
	C85.421951,175.969421 91.256088,176.106491 97.086060,176.001450 
	C101.990257,175.913086 104.484436,179.575089 106.973579,182.648590 
	C118.450073,196.819397 129.697464,211.176987 140.936554,225.538391 
	C148.775650,235.555222 156.468430,245.686554 164.436951,256.236481 
	C162.492966,258.036346 160.338593,259.366455 157.877823,260.885742 
	C159.068176,262.219421 159.671814,263.263489 160.573517,263.847015 
	C166.998856,268.005127 173.485046,272.069183 179.951874,276.163147 
z"/>
<path fill="#E8BC1F" opacity="1.000000" stroke="none" 
	d="
M336.805634,275.931030 
	C339.403900,277.923126 342.000610,279.921600 345.680054,278.807373 
	C345.040466,280.003937 344.269440,280.880096 343.485931,280.891418 
	C334.597961,281.019989 325.707306,281.077881 316.819824,280.962646 
	C315.816803,280.949615 314.829071,279.760376 313.834229,279.116547 
	C315.149933,278.734314 316.562653,278.538788 317.755005,277.919159 
	C319.033936,277.254547 320.105652,276.191101 321.895721,274.836853 
	C322.711151,273.075867 323.060486,271.779938 323.062225,270.483582 
	C323.098907,243.467957 323.111816,216.452225 323.061523,189.436661 
	C323.058594,187.849472 322.483337,186.263321 322.174438,184.676697 
	C321.652496,183.499710 321.130554,182.322739 320.236633,180.680252 
	C319.015472,179.174850 318.166321,178.134949 317.505585,177.325806 
	C321.708099,175.837585 325.840485,174.374207 329.972839,172.910828 
	C329.972839,172.910812 329.988037,172.980713 330.309143,172.923615 
	C335.443329,171.637665 334.922089,175.267868 334.944305,177.905029 
	C335.051605,190.654678 334.974945,203.405777 335.009186,216.156219 
	C335.018951,219.788864 333.683685,224.015427 338.811676,225.667175 
	C339.018005,225.733627 338.968750,226.593552 339.038574,227.083801 
	C338.355316,228.495651 337.672089,229.907486 336.634399,231.972321 
	C336.165161,246.300339 336.036285,259.975311 335.973633,273.650574 
	C335.970184,274.409454 336.515656,275.170807 336.805634,275.931030 
z"/>
<path fill="#E8BC1F" opacity="1.000000" stroke="none" 
	d="
M368.179016,232.804840 
	C367.616882,223.983383 359.646332,218.141510 350.785461,220.125839 
	C349.083038,220.507080 347.449066,221.194107 345.234131,222.007690 
	C344.427582,222.422287 344.214294,222.617279 344.044922,222.860291 
	C344.044922,222.860291 343.578156,222.986923 342.970032,222.888947 
	C341.634125,222.055527 340.906342,221.320053 340.178558,220.584595 
	C340.178558,220.584595 340.253937,220.278336 340.732117,220.343750 
	C341.777557,219.594452 342.344818,218.779739 342.912109,217.965027 
	C342.912109,217.965042 342.920166,217.917542 343.312683,217.932129 
	C344.790009,217.266418 345.874817,216.586121 346.959625,215.905838 
	C358.476807,207.755341 376.814026,211.480347 381.581360,225.175278 
	C381.894684,226.075333 381.859283,227.096786 381.985748,228.931824 
	C382.004700,241.961929 381.979279,254.122330 382.078827,266.281708 
	C382.100281,268.896942 382.572937,271.508484 382.837738,274.121704 
	C384.008392,279.740540 388.635468,278.718964 393.845001,278.601715 
	C388.286560,284.050110 382.491241,283.285309 377.165253,282.801697 
	C372.959991,282.419800 369.248993,280.216431 369.125793,274.165497 
	C369.220673,261.522827 369.246796,249.744781 369.146698,237.967819 
	C369.132050,236.244217 368.516510,234.525711 368.179016,232.804840 
z"/>
<path fill="#3D8936" opacity="1.000000" stroke="none" 
	d="
M180.383728,276.085754 
	C173.485046,272.069183 166.998856,268.005127 160.573517,263.847015 
	C159.671814,263.263489 159.068176,262.219421 157.877823,260.885742 
	C160.338593,259.366455 162.492966,258.036346 164.758652,256.384583 
	C167.289948,255.673828 169.709946,255.284698 172.837173,255.046692 
	C176.030548,254.758820 178.516663,254.319809 181.202789,253.927216 
	C181.402771,253.973648 181.811951,253.939529 182.003815,254.234390 
	C187.345581,261.368683 194.807251,263.246979 203.028000,263.892700 
	C203.800262,262.845306 204.774506,261.523926 206.086685,260.409790 
	C207.677078,263.393555 208.929535,266.170074 210.113007,269.301788 
	C210.746094,271.981995 210.879852,274.742798 212.262482,276.545929 
	C215.673645,280.994537 220.362946,283.489502 226.211975,283.465454 
	C226.188004,284.131775 226.162445,284.512024 226.136871,284.892303 
	C224.427032,285.542267 222.484940,287.070160 221.047623,286.689941 
	C214.882919,285.059052 207.773788,284.250061 203.069351,280.533417 
	C196.999557,275.738098 190.863342,276.142822 184.311981,275.997894 
	C183.147156,275.972107 181.981064,276.003418 180.383728,276.085754 
z"/>
<path fill="#E8BC1F" opacity="1.000000" stroke="none" 
	d="
M245.016968,212.955093 
	C253.954224,216.971619 259.793213,224.269470 262.707825,233.043152 
	C266.086334,243.213333 266.304596,253.986298 261.396851,264.042877 
	C256.831329,273.398193 250.104233,280.633362 239.039291,283.901794 
	C237.050201,283.821838 235.774994,283.601562 234.454987,283.373535 
	C235.433853,281.111877 236.121780,279.522400 236.839874,277.900696 
	C236.870026,277.868469 236.951218,277.903168 237.235596,277.874176 
	C237.982208,277.548004 238.444473,277.250854 239.061707,276.613525 
	C240.711777,274.447296 242.429733,272.759888 243.666199,270.772827 
	C252.501740,256.573853 254.312592,241.771851 246.914963,226.404709 
	C245.644653,223.765854 243.641830,221.479630 242.129974,218.692688 
	C243.194046,216.554932 244.105515,214.755020 245.016968,212.955093 
z"/>
<path fill="#E8BC1F" opacity="1.000000" stroke="none" 
	d="
M277.008240,215.152405 
	C277.008240,215.152405 277.467834,215.036789 278.085938,215.006195 
	C280.522644,214.802597 282.341217,214.629593 284.159790,214.456589 
	C282.920105,216.936432 280.854980,218.199432 279.657043,220.029938 
	C277.559692,223.234772 276.214447,226.777161 280.060730,229.906509 
	C280.060730,229.906509 280.026978,229.922455 280.140076,230.124969 
	C280.404968,230.579758 280.601318,230.790451 280.842255,230.959564 
	C281.505890,231.755341 282.169525,232.551117 283.078796,233.841614 
	C283.527618,234.590240 283.772339,234.794495 284.058502,234.949127 
	C284.058502,234.949127 284.000000,234.998352 284.156647,235.169983 
	C284.516052,235.593277 284.761017,235.793243 285.048187,235.941498 
	C285.048187,235.941498 285.000610,235.990616 285.156311,236.170883 
	C285.512512,236.601944 285.755737,236.800308 286.041687,236.946243 
	C286.041687,236.946243 286.028870,236.989075 286.129333,237.301987 
	C287.176941,238.059479 288.124146,238.504044 289.071320,238.948624 
	C289.071320,238.948624 289.560272,239.036758 289.942230,239.265396 
	C290.540039,239.690231 290.785034,239.838196 291.059204,239.937912 
	C291.059204,239.937912 291.030670,240.000137 291.126465,240.310669 
	C293.496490,241.720856 295.770691,242.820480 298.044922,243.920120 
	C298.044922,243.920120 298.012421,243.957840 298.223602,244.163269 
	C298.975372,244.559555 299.515930,244.750443 300.056519,244.941315 
	C300.056519,244.941315 300.000000,244.998779 300.078308,245.318054 
	C302.450043,247.061432 304.743500,248.485550 307.036957,249.909668 
	C307.036957,249.909683 307.022522,249.938293 307.170868,250.142609 
	C307.526031,250.597504 307.773285,250.798279 308.060974,250.949234 
	C308.060974,250.949234 308.076172,250.968674 308.139893,251.262054 
	C308.820587,252.016449 309.437531,252.477463 310.054474,252.938461 
	C310.054474,252.938461 310.005188,252.991943 310.037384,253.312683 
	C310.728516,254.393005 311.387482,255.152588 312.046417,255.912170 
	C312.046417,255.912170 312.084808,255.928284 312.064423,256.387146 
	C312.072327,262.243469 312.100647,267.640900 312.128937,273.038330 
	C312.128937,273.038330 312.145447,273.127502 311.773682,273.189453 
	C309.968750,274.851257 308.535553,276.451111 307.102386,278.050934 
	C307.102386,278.050934 307.085358,278.093597 306.659912,278.070221 
	C304.806396,276.988922 303.378326,275.931030 301.950195,274.873138 
	C301.976624,274.143036 302.003021,273.412964 302.351593,272.255005 
	C302.765106,271.207886 302.856476,270.588593 302.947845,269.969299 
	C302.962738,269.549469 302.977661,269.129639 303.178040,268.124695 
	C303.848694,263.249695 302.192993,260.331055 297.941742,259.074890 
	C290.327423,254.583801 282.415833,250.509796 275.243958,245.397980 
	C272.344055,243.331055 271.059662,238.997589 269.310455,234.987579 
	C270.016968,230.173553 270.453156,226.067474 270.889313,221.961411 
	C270.889313,221.961411 270.881561,221.893463 271.258057,221.853516 
	C273.425781,219.593170 275.217010,217.372787 277.008240,215.152405 
z"/>
<path fill="#E39209" opacity="1.000000" stroke="none" 
	d="
M210.181992,268.946594 
	C208.929535,266.170074 207.677078,263.393555 206.084900,260.112274 
	C204.725891,255.888336 202.004181,257.614807 200.101624,258.160553 
	C197.224518,258.985840 195.643204,258.406342 194.162552,255.678925 
	C190.390091,248.729797 188.412079,248.553848 181.811951,253.939529 
	C181.811951,253.939529 181.402771,253.973648 181.017303,253.647247 
	C177.716827,251.882446 174.801834,250.444046 171.886826,249.005646 
	C170.660248,247.900146 169.433655,246.794647 168.153000,245.124054 
	C170.383270,245.385818 172.667618,246.212708 175.259247,247.274109 
	C186.032562,249.992874 186.032562,249.992874 191.373077,243.015747 
	C193.843140,244.887268 195.904236,246.787170 198.049545,248.586655 
	C199.845612,250.093201 201.724747,252.570267 203.595596,252.596680 
	C205.241623,252.619919 206.927170,249.843323 208.614700,248.285263 
	C207.081146,247.002045 206.235199,246.294189 205.389236,245.586319 
	C210.709610,245.763779 214.102142,243.719177 215.938034,238.795715 
	C216.394043,240.457367 216.362457,241.867859 216.623001,243.222137 
	C217.083206,245.614197 218.306122,245.840332 220.291061,244.142380 
	C221.328888,244.701172 222.057877,245.274734 222.428955,245.892578 
	C217.910263,248.213028 213.749466,250.489182 210.553314,252.237625 
	C214.494156,252.548035 219.349991,253.252792 224.201202,253.222214 
	C229.074158,253.191498 233.942490,252.428329 238.795120,252.291687 
	C237.882828,253.406830 236.988251,254.216431 235.620193,255.017029 
	C232.681274,255.025467 230.185898,255.295410 227.756668,255.007401 
	C222.804398,254.420227 218.683578,255.420151 215.680603,259.992615 
	C214.913300,259.967316 214.474701,259.959412 213.983383,259.867798 
	C213.930649,259.784058 213.660034,259.798553 213.660034,259.798553 
	C213.660034,259.798553 213.948181,260.039520 213.848984,260.356354 
	C211.004379,262.477570 210.761215,264.492004 212.961151,267.010559 
	C213.894440,268.079010 214.374512,269.543365 214.718384,270.885193 
	C212.978134,270.277283 211.580063,269.611938 210.181992,268.946594 
z"/>
<path fill="#E7BA20" opacity="1.000000" stroke="none" 
	d="
M173.201660,194.016174 
	C172.783340,191.451675 172.250504,188.899536 171.972000,186.319946 
	C171.486816,181.825867 168.006653,181.008621 164.591904,179.994583 
	C162.666031,179.422684 160.778381,178.722168 158.873505,178.079575 
	C158.958817,177.486526 159.044113,176.893478 159.129425,176.300430 
	C170.585403,176.300430 182.041397,176.300430 193.497391,176.300430 
	C193.609619,176.760361 193.721848,177.220291 193.834076,177.680222 
	C192.571915,178.439133 191.399612,179.491379 190.033203,179.910019 
	C180.159653,182.934998 180.147217,182.894394 179.642441,193.941910 
	C179.201874,201.819748 178.982590,208.933411 179.003387,216.046356 
	C179.010895,218.611115 179.595016,221.174210 179.916016,223.738052 
	C185.421036,226.950165 185.549667,220.746201 188.542099,219.355911 
	C188.560730,221.799820 188.258514,223.883743 187.538940,225.977524 
	C185.720032,226.014557 184.318451,226.041718 182.455414,226.052948 
	C179.176254,225.980194 176.358551,225.923386 173.646423,225.417206 
	C173.568558,214.650604 173.385101,204.333389 173.201660,194.016174 
z"/>
<path fill="#F9D926" opacity="1.000000" stroke="none" 
	d="
M173.540848,225.866577 
	C176.358551,225.923386 179.176254,225.980194 182.693146,226.282669 
	C185.257401,227.680771 187.122467,228.833206 188.994003,229.992935 
	C189.000458,230.000229 189.014389,230.013870 189.058167,230.348785 
	C191.153610,233.881897 190.850403,236.411530 186.985153,237.862915 
	C186.929962,237.780228 186.657974,237.794327 186.657974,237.794327 
	C186.657974,237.794327 186.941315,238.044418 187.007278,238.340942 
	C187.706116,239.413422 188.338989,240.189362 188.987976,241.297760 
	C189.025146,242.071808 189.046188,242.513397 188.736725,242.991913 
	C188.186844,243.060944 187.967484,243.093079 187.414459,243.100983 
	C186.406647,243.037125 185.732468,242.997467 184.857864,242.744751 
	C184.111084,242.346085 183.564758,242.160477 182.974182,241.892120 
	C182.929947,241.809372 182.692261,241.806381 182.692261,241.806381 
	C182.692261,241.806381 182.976944,242.016968 183.051758,242.250610 
	C180.401718,244.002701 177.676849,245.521149 174.951981,247.039581 
	C172.667618,246.212708 170.383270,245.385818 168.063080,244.824738 
	C164.438019,239.233749 164.944687,234.914642 170.237915,227.907654 
	C170.621246,227.189575 170.809967,227.030869 171.056595,226.940903 
	C171.056595,226.940903 171.017868,227.052399 171.211487,226.923615 
	C171.605728,226.499298 171.806351,226.203781 172.006973,225.908264 
	C172.006973,225.908264 171.995621,225.991821 172.227600,225.988647 
	C172.819992,225.945847 173.180420,225.906204 173.540848,225.866577 
z"/>
<path fill="#F9D926" opacity="1.000000" stroke="none" 
	d="
M187.956284,225.967667 
	C188.258514,223.883743 188.560730,221.799820 188.907593,219.327026 
	C189.757584,218.018280 190.562927,217.098389 191.939087,216.039673 
	C192.966904,215.599945 193.423904,215.299057 193.880905,214.998169 
	C194.086914,214.694595 194.292923,214.391037 194.948242,214.261948 
	C200.060822,213.174622 204.167877,214.382278 207.914215,217.700623 
	C207.953232,222.764511 207.978470,227.380325 208.002167,231.997253 
	C208.000610,231.998352 208.006073,231.989044 207.752045,232.198395 
	C206.566788,233.866989 205.635559,235.326233 204.256653,237.487015 
	C204.077301,234.234863 203.950439,231.934540 203.823578,229.634216 
	C203.672745,229.644699 203.521912,229.655197 203.371094,229.665680 
	C203.038254,231.155243 202.705414,232.644821 202.140198,235.174347 
	C201.135818,232.497040 200.524841,230.868378 199.913864,229.239716 
	C199.650070,229.308777 199.386276,229.377823 199.122482,229.446884 
	C199.023209,231.549240 198.923920,233.651611 198.751495,237.302689 
	C196.111954,235.171066 194.394516,233.715805 192.601364,232.360779 
	C191.464005,231.501328 190.213913,230.791046 189.014389,230.013870 
	C189.014389,230.013870 189.000458,230.000229 189.009216,229.642639 
	C188.664078,228.179245 188.310181,227.073456 187.956284,225.967667 
z"/>
<path fill="#3D8936" opacity="1.000000" stroke="none" 
	d="
M207.900452,217.252548 
	C204.167877,214.382278 200.060822,213.174622 195.205276,214.149689 
	C194.418274,210.702713 193.823532,207.542480 193.867310,204.295532 
	C197.646698,207.523834 201.467468,206.865768 205.313812,206.058334 
	C204.904160,207.146973 204.494492,208.235596 203.795258,209.689240 
	C203.206543,210.282486 202.907379,210.510712 202.608231,210.738922 
	C202.825058,210.956619 203.041885,211.174316 203.258713,211.392029 
	C203.501328,210.917252 203.743942,210.442459 203.986557,209.967667 
	C207.672272,206.140701 213.554611,203.709549 212.231430,196.693909 
	C212.085907,195.922348 212.971115,194.956406 214.036758,193.925629 
	C215.798904,195.223938 216.902557,196.677261 218.370255,198.609940 
	C219.977859,198.972427 222.466187,199.533508 224.954529,200.094589 
	C223.001801,201.243576 221.090820,202.472366 219.085526,203.520767 
	C216.721024,204.756897 214.274933,205.836914 212.427216,208.025574 
	C217.496140,208.025574 222.565063,208.025574 228.109100,208.484283 
	C228.553268,209.890305 228.522308,210.837646 228.011841,211.880524 
	C221.197205,211.415390 215.777695,213.500488 211.004669,217.796295 
	C210.929901,217.922775 210.683548,218.084305 210.608994,217.821625 
	C209.656448,217.456802 208.778442,217.354675 207.900452,217.252548 
z"/>
<path fill="#296B47" opacity="1.000000" stroke="none" 
	d="
M379.747345,180.783997 
	C385.720520,176.221786 391.123810,175.864456 396.939362,179.012177 
	C401.903564,181.699066 403.498596,187.541428 402.637390,191.599365 
	C401.501648,196.950958 396.845367,200.702225 391.535126,201.084671 
	C385.889130,201.491287 380.651154,200.530106 378.147949,194.978928 
	C376.078552,190.389664 375.899628,185.386459 379.747345,180.783997 
M385.126709,181.486679 
	C384.250092,182.667160 383.101440,183.732758 382.545593,185.048737 
	C380.530121,189.820786 383.170288,197.404404 387.033966,197.916534 
	C390.791595,198.414627 394.100861,197.610168 396.451904,194.084763 
	C399.320251,189.783752 397.459229,186.095993 395.048859,182.739777 
	C392.719177,179.495865 389.330750,179.090729 385.126709,181.486679 
z"/>
<path fill="#E7BA20" opacity="1.000000" stroke="none" 
	d="
M301.622681,275.031799 
	C303.378326,275.931030 304.806396,276.988922 306.636963,278.071198 
	C303.105438,279.687714 299.289459,282.116333 295.211975,282.691620 
	C287.578644,283.768616 279.820221,283.387207 272.565674,280.142334 
	C266.952820,277.631744 264.853180,268.219330 269.011505,261.221954 
	C270.189697,263.101990 271.333862,264.495300 272.016144,266.086639 
	C276.468811,276.471680 283.131531,280.249329 293.563538,278.861176 
	C296.255890,278.502869 298.724030,276.459686 301.622681,275.031799 
z"/>
<path fill="#E7BA20" opacity="1.000000" stroke="none" 
	d="
M280.042114,229.477325 
	C276.214447,226.777161 277.559692,223.234772 279.657043,220.029938 
	C280.854980,218.199432 282.920105,216.936432 284.159790,214.456589 
	C282.341217,214.629593 280.522644,214.802597 278.320099,214.969727 
	C279.012695,214.318176 280.018463,213.310898 281.177032,213.084045 
	C290.420319,211.274170 299.662598,210.233994 308.360199,215.206451 
	C309.418365,215.811417 310.757599,217.044800 310.826477,218.063919 
	C311.106720,222.213348 310.943115,226.392746 310.943115,230.561111 
	C310.358826,230.665543 309.774536,230.769989 309.190247,230.874420 
	C307.143555,227.695129 305.359406,224.304184 302.999725,221.377213 
	C296.572235,213.404434 286.402313,214.522476 281.206818,221.559708 
	C279.874908,223.363754 280.368530,226.515549 280.042114,229.477325 
z"/>
<path fill="#296B47" opacity="1.000000" stroke="none" 
	d="
M374.647705,185.565918 
	C372.788940,192.158234 367.418091,191.877380 361.781097,192.384384 
	C362.361603,195.335785 362.871063,197.925903 363.426361,200.749191 
	C360.813721,200.749191 358.082153,200.749191 355.115662,200.749191 
	C359.720673,193.083557 356.271942,185.444855 356.448944,176.853348 
	C361.110840,177.326324 366.454590,177.360550 371.462341,178.674942 
	C373.038269,179.088593 373.712585,182.937271 374.647705,185.565918 
M369.504852,184.550568 
	C368.283630,181.236465 366.684326,178.612183 362.287415,180.699600 
	C362.287415,183.258453 362.287415,185.805679 362.287415,188.556229 
	C365.603546,189.043503 368.464508,189.368164 369.504852,184.550568 
z"/>
<path fill="#296B47" opacity="1.000000" stroke="none" 
	d="
M416.924011,196.462219 
	C417.325562,191.011307 412.475128,191.510208 409.702942,189.881546 
	C403.897278,186.470718 402.663300,181.274338 408.155670,178.365295 
	C411.218048,176.743301 416.031860,178.263641 420.005005,178.770676 
	C420.419220,178.823547 420.483795,181.616547 420.807922,183.791290 
	C417.920990,182.113968 416.150879,180.665924 414.131348,180.085007 
	C413.085052,179.784073 411.596985,181.019089 410.308502,181.560181 
	C410.929962,182.766754 411.255676,184.371719 412.233795,185.097778 
	C414.332001,186.655258 417.240540,187.327271 418.925476,189.175049 
	C420.488312,190.888977 421.948547,193.895309 421.503326,195.899200 
	C421.070984,197.845032 418.400696,199.818344 416.266449,200.708755 
	C414.269928,201.541702 411.670532,201.169037 409.366516,200.973236 
	C405.185822,200.617950 403.896881,198.490433 406.130280,194.124329 
	C409.211029,197.252716 412.405914,199.792847 416.924011,196.462219 
z"/>
<path fill="#F9D926" opacity="1.000000" stroke="none" 
	d="
M205.581787,205.809509 
	C201.467468,206.865768 197.646698,207.523834 194.138092,204.113770 
	C193.038239,199.416168 195.357361,196.112671 198.862839,193.840561 
	C200.143219,193.010681 203.603409,193.099335 204.070175,193.914108 
	C205.508011,196.424011 206.128906,199.455429 206.744278,202.352814 
	C206.948700,203.315353 206.175812,204.485474 205.581787,205.809509 
z"/>
<path fill="#F9D926" opacity="1.000000" stroke="none" 
	d="
M218.184845,186.010025 
	C221.755417,181.440094 226.443329,182.786987 231.189011,183.313385 
	C231.374374,185.932434 231.542358,188.305847 231.034546,190.899994 
	C228.683868,192.422577 227.136230,193.955704 225.300751,194.965759 
	C223.170486,196.138046 220.505264,197.394516 219.249222,193.929260 
	C218.452850,191.732086 218.361633,189.279282 217.954147,186.941132 
	C217.954147,186.941132 217.993851,186.998230 218.114410,186.923798 
	C218.466141,186.558472 218.449432,186.278687 218.184845,186.010025 
z"/>
<path fill="#E7BA20" opacity="1.000000" stroke="none" 
	d="
M228.491348,211.784973 
	C228.522308,210.837646 228.553268,209.890305 228.597488,208.586365 
	C233.972229,209.587982 239.333694,210.946213 244.856079,212.629761 
	C244.105515,214.755020 243.194046,216.554932 241.789856,218.557983 
	C237.028519,216.435745 232.759933,214.110367 228.491348,211.784973 
z"/>
<path fill="#FEE19C" opacity="1.000000" stroke="none" 
	d="
M322.094666,185.171173 
	C322.483337,186.263321 323.058594,187.849472 323.061523,189.436661 
	C323.111816,216.452225 323.098907,243.467957 323.062225,270.483582 
	C323.060486,271.779938 322.711151,273.075867 322.237793,274.679321 
	C321.972931,245.212967 321.993927,215.439301 322.094666,185.171173 
z"/>
<path fill="#E7BA20" opacity="1.000000" stroke="none" 
	d="
M217.628448,187.070953 
	C218.361633,189.279282 218.452850,191.732086 219.249222,193.929260 
	C220.505264,197.394516 223.170486,196.138046 225.300751,194.965759 
	C227.136230,193.955704 228.683868,192.422577 230.708344,191.074341 
	C231.430222,195.302170 228.566208,197.597290 225.304642,199.979004 
	C222.466187,199.533508 219.977859,198.972427 218.370255,198.609940 
	C216.902557,196.677261 215.798904,195.223938 214.368164,193.804779 
	C215.128311,191.626221 216.215546,189.413498 217.628448,187.070953 
z"/>
<path fill="#E7BA20" opacity="1.000000" stroke="none" 
	d="
M339.977661,220.706177 
	C340.906342,221.320053 341.634125,222.055527 342.730835,222.924408 
	C341.945312,224.317581 340.790924,225.577347 339.337524,226.960449 
	C338.968750,226.593552 339.018005,225.733627 338.811676,225.667175 
	C333.683685,224.015427 335.018951,219.788864 335.009186,216.156219 
	C334.974945,203.405777 335.051605,190.654678 334.944305,177.905029 
	C334.922089,175.267868 335.443329,171.637665 330.279205,172.904022 
	C331.285004,172.303024 332.641815,171.664520 334.587646,171.468399 
	C335.411377,174.030899 335.840179,176.150177 335.849182,178.271240 
	C335.906342,191.755615 335.811951,205.241028 335.966949,218.723831 
	C335.980774,219.925446 334.299072,223.450317 338.421936,222.130829 
	C338.873535,221.696457 339.325134,221.262100 339.977661,220.706177 
z"/>
<path fill="#FEE19C" opacity="1.000000" stroke="none" 
	d="
M337.955261,222.020264 
	C334.299072,223.450317 335.980774,219.925446 335.966949,218.723831 
	C335.811951,205.241028 335.906342,191.755615 335.849182,178.271240 
	C335.840179,176.150177 335.411377,174.030899 334.975922,171.550598 
	C338.358276,170.556488 336.940613,173.353821 336.950043,174.705429 
	C337.048553,188.814880 336.994415,202.925308 337.030365,217.035339 
	C337.034515,218.660507 337.328857,220.284927 337.955261,222.020264 
z"/>
<path fill="#E7BA20" opacity="1.000000" stroke="none" 
	d="
M236.809708,277.932953 
	C236.121780,279.522400 235.433853,281.111877 234.454987,283.373535 
	C235.774994,283.601562 237.050201,283.821838 238.702850,284.068054 
	C235.199356,287.034485 231.010544,286.356689 226.456421,285.016663 
	C226.162445,284.512024 226.188004,284.131775 226.524841,283.281921 
	C230.160629,281.185913 233.485168,279.559418 236.809708,277.932953 
z"/>
<path fill="#FEE19C" opacity="1.000000" stroke="none" 
	d="
M382.897705,273.642792 
	C382.572937,271.508484 382.100281,268.896942 382.078827,266.281708 
	C381.979279,254.122330 382.004700,241.961929 381.958191,229.318787 
	C382.277191,230.504852 382.913574,232.172272 382.923645,233.843475 
	C383.002655,246.949860 382.961639,260.056976 382.897705,273.642792 
z"/>
<path fill="#FEE19C" opacity="1.000000" stroke="none" 
	d="
M336.877686,275.471588 
	C336.515656,275.170807 335.970184,274.409454 335.973633,273.650574 
	C336.036285,259.975311 336.165161,246.300339 336.569763,232.323242 
	C336.889618,246.351501 336.919647,260.681824 336.877686,275.471588 
z"/>
<path fill="#E7BA20" opacity="1.000000" stroke="none" 
	d="
M329.555023,172.951599 
	C325.840485,174.374207 321.708099,175.837585 317.505585,177.325806 
	C318.166321,178.134949 319.015472,179.174850 319.934021,180.520462 
	C317.311676,180.209656 314.619965,179.593140 311.928284,178.976608 
	C311.874817,178.245193 311.821350,177.513763 311.767883,176.782333 
	C317.557648,175.519028 323.347443,174.255707 329.555023,172.951599 
z"/>
<path fill="#FEE19C" opacity="1.000000" stroke="none" 
	d="
M92.136520,190.339264 
	C92.513405,193.951828 93.105774,198.046402 93.114990,202.142288 
	C93.136925,211.897171 92.883278,221.652679 92.462326,231.729523 
	C92.151421,218.308014 92.119156,204.564941 92.136520,190.339264 
z"/>
<path fill="#FEE19C" opacity="1.000000" stroke="none" 
	d="
M77.809914,279.250214 
	C79.065926,279.837524 79.883850,280.966217 80.712189,280.973877 
	C90.816368,281.067749 100.922203,281.011902 111.027046,280.927338 
	C111.563934,280.922882 112.095772,280.315491 112.684334,279.612122 
	C113.263054,279.989105 113.787407,280.742767 114.639015,281.966797 
	C102.364990,281.966797 90.988075,281.918976 79.612228,282.008270 
	C77.411835,282.025543 76.443863,281.560486 77.809914,279.250214 
z"/>
<path fill="#FEE19C" opacity="1.000000" stroke="none" 
	d="
M368.078644,233.281982 
	C368.516510,234.525711 369.132050,236.244217 369.146698,237.967819 
	C369.246796,249.744781 369.220673,261.522827 369.173645,273.787659 
	C368.725647,272.813965 368.014221,271.355408 368.004211,269.892029 
	C367.921906,257.848236 367.969849,245.803528 368.078644,233.281982 
z"/>
<path fill="#E7BA20" opacity="1.000000" stroke="none" 
	d="
M172.050568,249.355667 
	C174.801834,250.444046 177.716827,251.882446 180.817322,253.600830 
	C178.516663,254.319809 176.030548,254.758820 173.236176,254.966522 
	C172.690048,253.058701 172.452179,251.382202 172.050568,249.355667 
z"/>
<path fill="#FEE19C" opacity="1.000000" stroke="none" 
	d="
M313.507446,279.334534 
	C314.829071,279.760376 315.816803,280.949615 316.819824,280.962646 
	C325.707306,281.077881 334.597961,281.019989 343.485931,280.891418 
	C344.269440,280.880096 345.040466,280.003937 345.861633,279.102448 
	C346.321289,279.634644 346.736603,280.593842 347.332642,281.970612 
	C336.286530,281.970612 325.859924,282.021149 315.436401,281.866364 
	C314.673187,281.855072 313.932037,280.358551 313.507446,279.334534 
z"/>
<path fill="#FEE19C" opacity="1.000000" stroke="none" 
	d="
M173.646423,225.417206 
	C173.180420,225.906204 172.819992,225.945847 172.185852,225.982666 
	C172.280472,224.270706 172.941925,222.565994 172.967728,220.851730 
	C173.097672,212.219177 173.061783,203.584152 173.142883,194.483078 
	C173.385101,204.333389 173.568558,214.650604 173.646423,225.417206 
z"/>
<path fill="#FEE19C" opacity="1.000000" stroke="none" 
	d="
M179.945541,223.295044 
	C179.595016,221.174210 179.010895,218.611115 179.003387,216.046356 
	C178.982590,208.933411 179.201874,201.819748 179.568909,194.372131 
	C179.866043,203.642593 179.920563,213.247330 179.945541,223.295044 
z"/>
<path fill="#FEE19C" opacity="1.000000" stroke="none" 
	d="
M98.930145,236.430054 
	C98.700874,227.168503 98.535652,217.451279 98.590935,207.390015 
	C98.872360,216.688766 98.933266,226.331573 98.930145,236.430054 
z"/>
<path fill="#E7BA20" opacity="1.000000" stroke="none" 
	d="
M312.476013,272.876373 
	C312.100647,267.640900 312.072327,262.243469 312.067108,256.407806 
	C314.646576,261.449982 315.147797,267.020355 312.476013,272.876373 
z"/>
<path fill="#E7BA20" opacity="1.000000" stroke="none" 
	d="
M276.656677,215.075500 
	C275.217010,217.372787 273.425781,219.593170 271.290985,221.844284 
	C272.733337,219.582870 274.519226,217.290726 276.656677,215.075500 
z"/>
<path fill="#E7BA20" opacity="1.000000" stroke="none" 
	d="
M270.534912,222.102753 
	C270.453156,226.067474 270.016968,230.173553 269.378113,234.621704 
	C266.805908,230.510193 268.126770,226.348175 270.534912,222.102753 
z"/>
<path fill="#F9D926" opacity="1.000000" stroke="none" 
	d="
M297.959900,259.433533 
	C302.192993,260.331055 303.848694,263.249695 303.158569,267.810028 
	C301.295135,265.317688 299.636597,262.554932 297.959900,259.433533 
z"/>
<path fill="#E7BA20" opacity="1.000000" stroke="none" 
	d="
M306.913574,249.591553 
	C304.743500,248.485550 302.450043,247.061432 300.106689,245.288345 
	C302.301300,246.384064 304.545746,247.828751 306.913574,249.591553 
z"/>
<path fill="#E7BA20" opacity="1.000000" stroke="none" 
	d="
M297.917725,243.595108 
	C295.770691,242.820480 293.496490,241.720856 291.149170,240.283508 
	C293.314240,241.053894 295.552368,242.161987 297.917725,243.595108 
z"/>
<path fill="#E7BA20" opacity="1.000000" stroke="none" 
	d="
M307.449097,278.034271 
	C308.535553,276.451111 309.968750,274.851257 311.730774,273.204102 
	C310.638336,274.777039 309.217072,276.397339 307.449097,278.034271 
z"/>
<path fill="#E7BA20" opacity="1.000000" stroke="none" 
	d="
M346.621948,215.959167 
	C345.874817,216.586121 344.790009,217.266418 343.336487,217.928528 
	C344.073273,217.277740 345.178772,216.645111 346.621948,215.959167 
z"/>
<path fill="#E7BA20" opacity="1.000000" stroke="none" 
	d="
M288.953918,238.643311 
	C288.124146,238.504044 287.176941,238.059479 286.147522,237.288696 
	C286.989014,237.420975 287.912781,237.879471 288.953918,238.643311 
z"/>
<path fill="#E7BA20" opacity="1.000000" stroke="none" 
	d="
M342.646301,218.051086 
	C342.344818,218.779739 341.777557,219.594452 340.883179,220.298492 
	C341.164215,219.504257 341.772339,218.820694 342.646301,218.051086 
z"/>
<path fill="#E7BA20" opacity="1.000000" stroke="none" 
	d="
M312.036499,255.583923 
	C311.387482,255.152588 310.728516,254.393005 310.067017,253.291931 
	C310.718475,253.718857 311.372528,254.487274 312.036499,255.583923 
z"/>
<path fill="#F9D926" opacity="1.000000" stroke="none" 
	d="
M302.664795,270.089478 
	C302.856476,270.588593 302.765106,271.207886 302.438507,271.900146 
	C302.262726,271.385315 302.322235,270.797485 302.664795,270.089478 
z"/>
<path fill="#E7BA20" opacity="1.000000" stroke="none" 
	d="
M310.025330,252.595398 
	C309.437531,252.477463 308.820587,252.016449 308.146820,251.250336 
	C308.725403,251.380920 309.360809,251.816620 310.025330,252.595398 
z"/>
<path fill="#E7BA20" opacity="1.000000" stroke="none" 
	d="
M193.577286,214.998413 
	C193.423904,215.299057 192.966904,215.599945 192.227539,215.929581 
	C192.387985,215.638428 192.830826,215.318542 193.577286,214.998413 
z"/>
<path fill="#E7BA20" opacity="1.000000" stroke="none" 
	d="
M299.939941,244.653625 
	C299.515930,244.750443 298.975372,244.559555 298.238586,244.151306 
	C298.636047,244.077927 299.229706,244.221924 299.939941,244.653625 
z"/>
<path fill="#E7BA20" opacity="1.000000" stroke="none" 
	d="
M344.298950,222.901733 
	C344.214294,222.617279 344.427582,222.422287 344.885498,222.194275 
	C344.908478,222.389908 344.730743,222.666550 344.298950,222.901733 
z"/>
<path fill="#E7BA20" opacity="1.000000" stroke="none" 
	d="
M218.094879,186.241364 
	C218.449432,186.278687 218.466141,186.558472 218.084137,186.906647 
	C217.933334,186.963943 218.004929,186.472702 218.094879,186.241364 
z"/>
<path fill="#FEE19C" opacity="1.000000" stroke="none" 
	d="
M170.852783,226.986847 
	C170.809967,227.030869 170.621246,227.189575 170.360352,227.547272 
	C170.201157,227.353302 170.340744,227.138412 170.852783,226.986847 
z"/>
<path fill="#FEE19C" opacity="1.000000" stroke="none" 
	d="
M171.733887,225.987183 
	C171.806351,226.203781 171.605728,226.499298 171.155151,226.906036 
	C171.090393,226.700211 171.275604,226.383163 171.733887,225.987183 
z"/>
<path fill="#E7BA20" opacity="1.000000" stroke="none" 
	d="
M280.880249,230.702789 
	C280.601318,230.790451 280.404968,230.579758 280.156555,230.131866 
	C280.346039,230.106171 280.632141,230.276093 280.880249,230.702789 
z"/>
<path fill="#E7BA20" opacity="1.000000" stroke="none" 
	d="
M307.995056,250.696487 
	C307.773285,250.798279 307.526031,250.597504 307.186371,250.146591 
	C307.345398,250.112076 307.637299,250.277908 307.995056,250.696487 
z"/>
<path fill="#E7BA20" opacity="1.000000" stroke="none" 
	d="
M290.994934,239.687073 
	C290.785034,239.838196 290.540039,239.690231 290.181274,239.332977 
	C290.335785,239.260025 290.633240,239.348129 290.994934,239.687073 
z"/>
<path fill="#E7BA20" opacity="1.000000" stroke="none" 
	d="
M285.974060,236.700439 
	C285.755737,236.800308 285.512512,236.601944 285.183655,236.151627 
	C285.338989,236.119614 285.622742,236.287125 285.974060,236.700439 
z"/>
<path fill="#E7BA20" opacity="1.000000" stroke="none" 
	d="
M284.986908,235.688736 
	C284.761017,235.793243 284.516052,235.593277 284.182434,235.141510 
	C284.342957,235.106277 284.634277,235.271133 284.986908,235.688736 
z"/>
<path fill="#E7BA20" opacity="1.000000" stroke="none" 
	d="
M283.995850,234.697479 
	C283.772339,234.794495 283.527618,234.590240 283.201569,234.132111 
	C283.363556,234.100540 283.648376,234.273193 283.995850,234.697479 
z"/>
<path fill="#000000" opacity="1.000000" stroke="none" 
	d="
M236.839874,277.900696 
	C233.485168,279.559418 230.160629,281.185913 226.523224,282.995880 
	C220.362946,283.489502 215.673645,280.994537 212.262482,276.545929 
	C210.879852,274.742798 210.746094,271.981995 210.113007,269.301788 
	C211.580063,269.611938 212.978134,270.277283 214.999161,271.025146 
	C216.431885,271.680176 217.241653,272.252655 218.495331,272.890686 
	C223.866592,272.982269 228.136642,272.737549 232.700470,269.171600 
	C237.908676,265.102142 239.879898,261.969299 236.013672,255.665710 
	C236.021790,255.450562 236.093674,255.026016 236.093674,255.026016 
	C236.988251,254.216431 237.882828,253.406830 238.922272,252.022766 
	C239.415405,250.981430 239.763687,250.514572 240.432404,249.904175 
	C244.481049,247.279037 246.523743,244.438461 244.971863,239.451340 
	C243.188690,233.720871 239.477432,230.600296 234.029358,228.978149 
	C234.001312,228.999191 234.049133,228.952377 233.910141,228.618805 
	C233.514313,227.712753 233.308624,227.110245 232.992523,226.572632 
	C230.592102,222.490005 228.840302,217.481903 223.147797,217.122375 
	C219.152466,216.870056 215.104126,217.457413 211.079453,217.669800 
	C215.777695,213.500488 221.197205,211.415390 228.011841,211.880524 
	C232.759933,214.110367 237.028519,216.435745 241.637238,218.895828 
	C243.641830,221.479630 245.644653,223.765854 246.914963,226.404709 
	C254.312592,241.771851 252.501740,256.573853 243.666199,270.772827 
	C242.429733,272.759888 240.711777,274.447296 238.766418,276.645264 
	C237.861176,277.312469 237.406189,277.607819 236.951218,277.903168 
	C236.951218,277.903168 236.870026,277.868469 236.839874,277.900696 
z"/>
<path fill="#F9D926" opacity="1.000000" stroke="none" 
	d="
M182.003815,254.234390 
	C188.412079,248.553848 190.390091,248.729797 194.162552,255.678925 
	C195.643204,258.406342 197.224518,258.985840 200.101624,258.160553 
	C202.004181,257.614807 204.725891,255.888336 205.746979,259.905029 
	C204.774506,261.523926 203.800262,262.845306 203.028000,263.892700 
	C194.807251,263.246979 187.345581,261.368683 182.003815,254.234390 
z"/>
<path fill="#E7BA20" opacity="1.000000" stroke="none" 
	d="
M237.235596,277.874176 
	C237.406189,277.607819 237.861176,277.312469 238.611435,276.985413 
	C238.444473,277.250854 237.982208,277.548004 237.235596,277.874176 
z"/>
<path fill="#F9D926" opacity="1.000000" stroke="none" 
	d="
M234.057388,228.957092 
	C239.477432,230.600296 243.188690,233.720871 244.971863,239.451340 
	C246.523743,244.438461 244.481049,247.279037 240.006409,249.897614 
	C236.207809,250.200714 232.991455,251.035751 230.151215,250.338547 
	C227.489410,249.685150 225.225739,247.409851 222.786865,245.848282 
	C222.057877,245.274734 221.328888,244.701172 220.448380,243.834732 
	C221.624939,242.100174 222.953018,240.658508 224.493515,238.986237 
	C222.966095,238.715469 221.664536,238.484741 220.109833,238.209152 
	C220.475479,236.597305 220.764053,235.325119 221.240173,234.028809 
	C221.604446,233.847626 221.781174,233.690567 221.957916,233.533508 
	C221.629395,233.675308 221.300858,233.817108 220.625275,234.039337 
	C217.181625,235.409103 214.085037,236.698425 210.993698,237.993317 
	C210.998932,237.998901 211.010406,238.005814 211.015594,237.718521 
	C209.896362,237.101974 208.771957,236.772720 207.656296,236.446030 
	C207.756958,235.163422 207.881516,233.576233 208.006073,231.989044 
	C208.006073,231.989044 208.000610,231.998352 208.357452,231.963135 
	C210.665863,230.609085 212.617432,229.290268 215.300919,227.476837 
	C213.101120,226.670746 211.622940,226.129089 210.375793,225.672073 
	C209.835037,222.863495 214.661301,220.728683 210.683548,218.084305 
	C210.683548,218.084305 210.929901,217.922775 211.004669,217.796295 
	C215.104126,217.457413 219.152466,216.870056 223.147797,217.122375 
	C228.840302,217.481903 230.592102,222.490005 232.992523,226.572632 
	C233.308624,227.110245 233.514313,227.712753 233.495850,228.651443 
	C230.410049,229.523438 227.599564,230.029205 224.789078,230.534973 
	C224.946976,231.088669 225.104874,231.642349 225.262756,232.196030 
	C228.194305,231.116379 231.125839,230.036728 234.057388,228.957092 
z"/>
<path fill="#F8BE0E" opacity="1.000000" stroke="none" 
	d="
M207.752045,232.198395 
	C207.881516,233.576233 207.756958,235.163422 207.656296,236.446030 
	C208.771957,236.772720 209.896362,237.101974 210.878326,237.832474 
	C210.676834,238.446838 210.617783,238.659958 210.558716,238.873093 
	C210.650787,238.837006 210.805954,238.820236 210.823944,238.761475 
	C210.900848,238.510330 210.937286,238.246780 210.988464,237.987762 
	C214.085037,236.698425 217.181625,235.409103 220.644485,234.063568 
	C221.010757,234.007370 221.052658,234.052933 221.052643,234.052933 
	C220.764053,235.325119 220.475479,236.597305 220.109833,238.209152 
	C221.664536,238.484741 222.966095,238.715469 224.493515,238.986237 
	C222.953018,240.658508 221.624939,242.100174 220.139542,243.849503 
	C218.306122,245.840332 217.083206,245.614197 216.623001,243.222137 
	C216.362457,241.867859 216.394043,240.457367 215.938034,238.795715 
	C214.102142,243.719177 210.709610,245.763779 205.389236,245.586319 
	C206.235199,246.294189 207.081146,247.002045 208.614700,248.285263 
	C206.927170,249.843323 205.241623,252.619919 203.595596,252.596680 
	C201.724747,252.570267 199.845612,250.093201 198.049545,248.586655 
	C195.904236,246.787170 193.843140,244.887268 191.372772,243.015442 
	C191.000000,243.000000 190.999390,242.999390 190.913574,242.703552 
	C190.209137,241.926926 189.590500,241.446106 188.971863,240.965302 
	C188.338989,240.189362 187.706116,239.413422 187.033371,238.317566 
	C186.993500,237.997665 187.040344,237.945587 187.040344,237.945587 
	C190.850403,236.411530 191.153610,233.881897 189.058167,230.348785 
	C190.213913,230.791046 191.464005,231.501328 192.601364,232.360779 
	C194.394516,233.715805 196.111954,235.171066 198.751495,237.302689 
	C198.923920,233.651611 199.023209,231.549240 199.122482,229.446884 
	C199.386276,229.377823 199.650070,229.308777 199.913864,229.239716 
	C200.524841,230.868378 201.135818,232.497040 202.140198,235.174347 
	C202.705414,232.644821 203.038254,231.155243 203.371094,229.665680 
	C203.521912,229.655197 203.672745,229.644699 203.823578,229.634216 
	C203.950439,231.934540 204.077301,234.234863 204.256653,237.487015 
	C205.635559,235.326233 206.566788,233.866989 207.752045,232.198395 
z"/>
<path fill="#F8BE0E" opacity="1.000000" stroke="none" 
	d="
M222.428955,245.892578 
	C225.225739,247.409851 227.489410,249.685150 230.151215,250.338547 
	C232.991455,251.035751 236.207809,250.200714 239.685974,250.041138 
	C239.763687,250.514572 239.415405,250.981430 238.940002,251.717224 
	C233.942490,252.428329 229.074158,253.191498 224.201202,253.222214 
	C219.349991,253.252792 214.494156,252.548035 210.553314,252.237625 
	C213.749466,250.489182 217.910263,248.213028 222.428955,245.892578 
z"/>
<path fill="#F8BE0E" opacity="1.000000" stroke="none" 
	d="
M235.620193,255.017029 
	C236.093674,255.026016 236.021790,255.450562 235.759003,255.952194 
	C229.935440,257.698212 224.374680,258.942627 218.463364,260.147766 
	C217.403564,260.069000 216.694305,260.029480 215.991211,259.994171 
	C215.997345,259.998383 216.009308,260.010071 216.009308,260.010071 
	C218.683578,255.420151 222.804398,254.420227 227.756668,255.007401 
	C230.185898,255.295410 232.681274,255.025467 235.620193,255.017029 
z"/>
<path fill="#F8BE0E" opacity="1.000000" stroke="none" 
	d="
M183.018417,241.974884 
	C183.564758,242.160477 184.111084,242.346085 185.046387,242.937744 
	C186.206253,243.270920 186.977188,243.198059 187.748108,243.125198 
	C187.967484,243.093079 188.186844,243.060944 189.058136,242.994583 
	C190.139832,242.973358 190.569611,242.986374 190.999390,242.999390 
	C190.999390,242.999390 191.000000,243.000000 191.000305,243.000305 
	C186.032562,249.992874 186.032562,249.992874 175.259247,247.274109 
	C177.676849,245.521149 180.401718,244.002701 183.063324,242.241364 
	C183.000061,241.998474 183.018417,241.974884 183.018417,241.974884 
z"/>
<path fill="#F8BE0E" opacity="1.000000" stroke="none" 
	d="
M218.051422,272.825134 
	C217.241653,272.252655 216.431885,271.680176 215.341339,270.967743 
	C214.374512,269.543365 213.894440,268.079010 212.961151,267.010559 
	C210.761215,264.492004 211.004379,262.477570 213.872208,260.335602 
	C213.994629,259.998016 214.036118,259.951538 214.036118,259.951538 
	C214.474701,259.959412 214.913300,259.967316 215.680603,259.992615 
	C216.009308,260.010071 215.997345,259.998383 216.121948,260.237427 
	C216.541412,260.941498 216.836288,261.406555 216.890747,262.172272 
	C217.117340,265.923676 217.584381,269.374420 218.051422,272.825134 
z"/>
<path fill="#F8BE0E" opacity="1.000000" stroke="none" 
	d="
M213.971405,260.018768 
	C213.948181,260.039520 213.660034,259.798553 213.660034,259.798553 
	C213.660034,259.798553 213.930649,259.784058 213.983383,259.867798 
	C214.036118,259.951538 213.994629,259.998016 213.971405,260.018768 
z"/>
<path fill="#F8BE0E" opacity="1.000000" stroke="none" 
	d="
M187.538940,225.977524 
	C188.310181,227.073456 188.664078,228.179245 189.002747,229.635345 
	C187.122467,228.833206 185.257401,227.680771 183.154602,226.298615 
	C184.318451,226.041718 185.720032,226.014557 187.538940,225.977524 
z"/>
<path fill="#E39209" opacity="1.000000" stroke="none" 
	d="
M190.913574,242.703568 
	C190.569611,242.986374 190.139832,242.973358 189.388641,242.957672 
	C189.046188,242.513397 189.025146,242.071808 188.987976,241.297760 
	C189.590500,241.446106 190.209137,241.926926 190.913574,242.703568 
z"/>
<path fill="#E39209" opacity="1.000000" stroke="none" 
	d="
M187.414459,243.100983 
	C186.977188,243.198059 186.206253,243.270920 185.246826,243.150803 
	C185.732468,242.997467 186.406647,243.037125 187.414459,243.100983 
z"/>
<path fill="#F8BE0E" opacity="1.000000" stroke="none" 
	d="
M182.988495,242.007721 
	C182.976944,242.016968 182.692261,241.806381 182.692261,241.806381 
	C182.692261,241.806381 182.929947,241.809372 182.974182,241.892120 
	C183.018417,241.974884 183.000061,241.998474 182.988495,242.007721 
z"/>
<path fill="#F8BE0E" opacity="1.000000" stroke="none" 
	d="
M186.967407,238.021042 
	C186.941315,238.044418 186.657974,237.794327 186.657974,237.794327 
	C186.657974,237.794327 186.929962,237.780228 186.985153,237.862915 
	C187.040344,237.945587 186.993500,237.997665 186.967407,238.021042 
z"/>
<path fill="#E8BC1F" opacity="1.000000" stroke="none" 
	d="
M210.608994,217.821625 
	C214.661301,220.728683 209.835037,222.863495 210.375793,225.672073 
	C211.622940,226.129089 213.101120,226.670746 215.300919,227.476837 
	C212.617432,229.290268 210.665863,230.609085 208.359009,231.962021 
	C207.978470,227.380325 207.953232,222.764511 207.914215,217.700623 
	C208.778442,217.354675 209.656448,217.456802 210.608994,217.821625 
z"/>
<path fill="#000000" opacity="1.000000" stroke="none" 
	d="
M204.001556,209.986893 
	C203.743942,210.442459 203.501328,210.917252 203.258713,211.392029 
	C203.041885,211.174316 202.825058,210.956619 202.608231,210.738922 
	C202.907379,210.510712 203.206543,210.282486 203.779053,210.046738 
	C204.052429,210.039200 204.016541,210.006119 204.001556,209.986893 
z"/>
<path fill="#000000" opacity="1.000000" stroke="none" 
	d="
M385.449646,181.259003 
	C389.330750,179.090729 392.719177,179.495865 395.048859,182.739777 
	C397.459229,186.095993 399.320251,189.783752 396.451904,194.084763 
	C394.100861,197.610168 390.791595,198.414627 387.033966,197.916534 
	C383.170288,197.404404 380.530121,189.820786 382.545593,185.048737 
	C383.101440,183.732758 384.250092,182.667160 385.449646,181.259003 
z"/>
<path fill="#000000" opacity="1.000000" stroke="none" 
	d="
M369.389557,184.902557 
	C368.464508,189.368164 365.603546,189.043503 362.287415,188.556229 
	C362.287415,185.805679 362.287415,183.258453 362.287415,180.699600 
	C366.684326,178.612183 368.283630,181.236465 369.389557,184.902557 
z"/>
<path fill="#F9D926" opacity="1.000000" stroke="none" 
	d="
M218.495331,272.890686 
	C217.584381,269.374420 217.117340,265.923676 217.183380,262.178467 
	C218.109314,261.871429 218.502167,261.858917 219.061142,262.031677 
	C219.611145,262.153717 219.995041,262.090485 220.378922,262.027252 
	C219.895767,261.693787 219.412598,261.360321 218.901703,260.816742 
	C218.873962,260.606628 218.813919,260.187012 218.813919,260.187012 
	C224.374680,258.942627 229.935440,257.698212 235.750885,256.167358 
	C239.879898,261.969299 237.908676,265.102142 232.700470,269.171600 
	C228.136642,272.737549 223.866592,272.982269 218.495331,272.890686 
z"/>
<path fill="#F8BE0E" opacity="1.000000" stroke="none" 
	d="
M234.029358,228.978134 
	C231.125839,230.036728 228.194305,231.116379 225.262756,232.196030 
	C225.104874,231.642349 224.946976,231.088669 224.789078,230.534973 
	C227.599564,230.029205 230.410049,229.523438 233.634827,228.985016 
	C234.049133,228.952377 234.001312,228.999191 234.029358,228.978134 
z"/>
<path fill="#F8BE0E" opacity="1.000000" stroke="none" 
	d="
M220.991547,233.983124 
	C221.300858,233.817108 221.629395,233.675308 221.957916,233.533508 
	C221.781174,233.690567 221.604446,233.847626 221.240189,234.028809 
	C221.052658,234.052933 221.010757,234.007370 220.991547,233.983124 
z"/>
<path fill="#F9D926" opacity="1.000000" stroke="none" 
	d="
M210.993698,237.993332 
	C210.937286,238.246780 210.900848,238.510330 210.823944,238.761475 
	C210.805954,238.820236 210.650787,238.837006 210.558716,238.873093 
	C210.617783,238.659958 210.676834,238.446838 210.873138,238.119766 
	C211.010406,238.005814 210.998932,237.998901 210.993698,237.993332 
z"/>
<path fill="#E39209" opacity="1.000000" stroke="none" 
	d="
M218.463364,260.147766 
	C218.813919,260.187012 218.873962,260.606628 218.889740,261.021362 
	C218.905502,261.436096 218.895020,261.846375 218.895020,261.846375 
	C218.502167,261.858917 218.109314,261.871429 217.423813,261.877747 
	C216.836288,261.406555 216.541412,260.941498 216.115799,260.233215 
	C216.694305,260.029480 217.403564,260.069000 218.463364,260.147766 
z"/>
<path fill="#F8BE0E" opacity="1.000000" stroke="none" 
	d="
M219.061142,262.031677 
	C218.895020,261.846375 218.905502,261.436096 218.917480,261.231476 
	C219.412598,261.360321 219.895767,261.693787 220.378922,262.027252 
	C219.995041,262.090485 219.611145,262.153717 219.061142,262.031677 
z"/>
</svg>